<mxfile host="app.diagrams.net" modified="2023-12-30T22:12:44.021Z" agent="Mozilla/5.0 (Windows NT 10.0; Win64; x64) AppleWebKit/537.36 (KHTML, like Gecko) Chrome/120.0.0.0 Safari/537.36" etag="H5Fa8SizfB57DAY8WIfL" version="22.1.16" type="device">
  <diagram name="Page-1" id="grGg9rsHYWKn2ttv4fcC">
    <mxGraphModel dx="1050" dy="618" grid="1" gridSize="10" guides="1" tooltips="1" connect="1" arrows="1" fold="1" page="1" pageScale="1" pageWidth="850" pageHeight="1100" math="0" shadow="0">
      <root>
        <mxCell id="0" />
        <mxCell id="1" parent="0" />
        <mxCell id="9V4aAQny4gAjv_mHl4VC-1" value="Kafka Streams" style="ellipse;whiteSpace=wrap;html=1;aspect=fixed;" vertex="1" parent="1">
          <mxGeometry x="400" y="80" width="80" height="80" as="geometry" />
        </mxCell>
        <mxCell id="9V4aAQny4gAjv_mHl4VC-2" value="Apache Kafka &lt;br&gt;Cluster" style="ellipse;whiteSpace=wrap;html=1;" vertex="1" parent="1">
          <mxGeometry x="380" y="200" width="120" height="80" as="geometry" />
        </mxCell>
        <mxCell id="9V4aAQny4gAjv_mHl4VC-4" value="Data&amp;nbsp;&lt;br&gt;source" style="shape=cylinder3;whiteSpace=wrap;html=1;boundedLbl=1;backgroundOutline=1;size=15;" vertex="1" parent="1">
          <mxGeometry x="190" y="320" width="70" height="80" as="geometry" />
        </mxCell>
        <mxCell id="9V4aAQny4gAjv_mHl4VC-5" value="Data destination" style="shape=cylinder3;whiteSpace=wrap;html=1;boundedLbl=1;backgroundOutline=1;size=15;" vertex="1" parent="1">
          <mxGeometry x="620" y="320" width="70" height="80" as="geometry" />
        </mxCell>
        <mxCell id="9V4aAQny4gAjv_mHl4VC-6" value="Producer" style="swimlane;whiteSpace=wrap;html=1;startSize=20;" vertex="1" parent="1">
          <mxGeometry x="290" y="300" width="80" height="60" as="geometry" />
        </mxCell>
        <mxCell id="9V4aAQny4gAjv_mHl4VC-9" value="Consumer" style="swimlane;whiteSpace=wrap;html=1;startSize=23;" vertex="1" parent="1">
          <mxGeometry x="510" y="300" width="80" height="60" as="geometry">
            <mxRectangle x="510" y="300" width="100" height="30" as="alternateBounds" />
          </mxGeometry>
        </mxCell>
        <mxCell id="9V4aAQny4gAjv_mHl4VC-12" value="" style="endArrow=classic;html=1;rounded=0;exitX=1;exitY=0.5;exitDx=0;exitDy=0;exitPerimeter=0;entryX=0;entryY=0.5;entryDx=0;entryDy=0;" edge="1" parent="1" source="9V4aAQny4gAjv_mHl4VC-4" target="9V4aAQny4gAjv_mHl4VC-6">
          <mxGeometry width="50" height="50" relative="1" as="geometry">
            <mxPoint x="400" y="340" as="sourcePoint" />
            <mxPoint x="450" y="290" as="targetPoint" />
          </mxGeometry>
        </mxCell>
        <mxCell id="9V4aAQny4gAjv_mHl4VC-13" value="" style="endArrow=classic;html=1;rounded=0;exitX=1;exitY=0;exitDx=0;exitDy=0;entryX=0;entryY=1;entryDx=0;entryDy=0;" edge="1" parent="1" source="9V4aAQny4gAjv_mHl4VC-6" target="9V4aAQny4gAjv_mHl4VC-2">
          <mxGeometry width="50" height="50" relative="1" as="geometry">
            <mxPoint x="400" y="340" as="sourcePoint" />
            <mxPoint x="450" y="290" as="targetPoint" />
          </mxGeometry>
        </mxCell>
        <mxCell id="9V4aAQny4gAjv_mHl4VC-14" value="" style="endArrow=none;html=1;rounded=0;exitX=0;exitY=0;exitDx=0;exitDy=0;entryX=1;entryY=1;entryDx=0;entryDy=0;startArrow=classic;startFill=1;endFill=0;" edge="1" parent="1" source="9V4aAQny4gAjv_mHl4VC-9" target="9V4aAQny4gAjv_mHl4VC-2">
          <mxGeometry width="50" height="50" relative="1" as="geometry">
            <mxPoint x="400" y="340" as="sourcePoint" />
            <mxPoint x="450" y="290" as="targetPoint" />
          </mxGeometry>
        </mxCell>
        <mxCell id="9V4aAQny4gAjv_mHl4VC-15" value="" style="endArrow=none;html=1;rounded=0;exitX=0;exitY=0.5;exitDx=0;exitDy=0;exitPerimeter=0;entryX=1;entryY=0.5;entryDx=0;entryDy=0;startArrow=classic;startFill=1;endFill=0;" edge="1" parent="1" source="9V4aAQny4gAjv_mHl4VC-5" target="9V4aAQny4gAjv_mHl4VC-9">
          <mxGeometry width="50" height="50" relative="1" as="geometry">
            <mxPoint x="400" y="340" as="sourcePoint" />
            <mxPoint x="450" y="290" as="targetPoint" />
          </mxGeometry>
        </mxCell>
        <mxCell id="9V4aAQny4gAjv_mHl4VC-16" value="" style="curved=1;endArrow=classic;html=1;rounded=0;exitX=0.337;exitY=0.035;exitDx=0;exitDy=0;exitPerimeter=0;entryX=0;entryY=1;entryDx=0;entryDy=0;" edge="1" parent="1" source="9V4aAQny4gAjv_mHl4VC-2" target="9V4aAQny4gAjv_mHl4VC-1">
          <mxGeometry width="50" height="50" relative="1" as="geometry">
            <mxPoint x="400" y="340" as="sourcePoint" />
            <mxPoint x="450" y="290" as="targetPoint" />
            <Array as="points">
              <mxPoint x="400" y="190" />
              <mxPoint x="400" y="160" />
            </Array>
          </mxGeometry>
        </mxCell>
        <mxCell id="9V4aAQny4gAjv_mHl4VC-17" value="" style="curved=1;endArrow=classic;html=1;rounded=0;exitX=1;exitY=1;exitDx=0;exitDy=0;entryX=0.683;entryY=0.005;entryDx=0;entryDy=0;entryPerimeter=0;" edge="1" parent="1" source="9V4aAQny4gAjv_mHl4VC-1" target="9V4aAQny4gAjv_mHl4VC-2">
          <mxGeometry width="50" height="50" relative="1" as="geometry">
            <mxPoint x="422" y="158" as="sourcePoint" />
            <mxPoint x="430" y="213" as="targetPoint" />
            <Array as="points">
              <mxPoint x="480" y="160" />
              <mxPoint x="480" y="190" />
            </Array>
          </mxGeometry>
        </mxCell>
      </root>
    </mxGraphModel>
  </diagram>
</mxfile>
